<mxfile host="app.diagrams.net" modified="2022-11-03T01:20:59.425Z" agent="5.0 (Windows NT 10.0; Win64; x64) AppleWebKit/537.36 (KHTML, like Gecko) Chrome/104.0.0.0 Safari/537.36" etag="-A3zzdxn48upWgG3KOqX" version="20.5.1" type="github">
  <diagram id="dwYE_KmnRpe4Xm9uTjKD" name="第 1 页">
    <mxGraphModel dx="1014" dy="485" grid="1" gridSize="10" guides="1" tooltips="1" connect="1" arrows="1" fold="1" page="1" pageScale="1" pageWidth="827" pageHeight="1169" math="0" shadow="0">
      <root>
        <mxCell id="0" />
        <mxCell id="1" parent="0" />
        <mxCell id="mUgfSfkDz3fqkiwKvha_-9" value="" style="edgeStyle=orthogonalEdgeStyle;rounded=0;orthogonalLoop=1;jettySize=auto;html=1;fontSize=26;strokeWidth=2;entryX=0;entryY=0.5;entryDx=0;entryDy=0;" edge="1" parent="1" source="mUgfSfkDz3fqkiwKvha_-2" target="mUgfSfkDz3fqkiwKvha_-4">
          <mxGeometry relative="1" as="geometry" />
        </mxCell>
        <mxCell id="mUgfSfkDz3fqkiwKvha_-2" value="" style="ellipse;whiteSpace=wrap;html=1;aspect=fixed;fillColor=#E6E6E6;" vertex="1" parent="1">
          <mxGeometry x="120" y="280" width="80" height="80" as="geometry" />
        </mxCell>
        <mxCell id="mUgfSfkDz3fqkiwKvha_-3" value="&lt;font style=&quot;font-size: 26px;&quot;&gt;&lt;b&gt;ON&lt;/b&gt;&lt;/font&gt;" style="text;html=1;resizable=0;autosize=1;align=center;verticalAlign=middle;points=[];fillColor=none;strokeColor=none;rounded=0;" vertex="1" parent="1">
          <mxGeometry x="130" y="300" width="60" height="40" as="geometry" />
        </mxCell>
        <mxCell id="mUgfSfkDz3fqkiwKvha_-4" value="" style="ellipse;whiteSpace=wrap;html=1;aspect=fixed;fillColor=#FFE599;" vertex="1" parent="1">
          <mxGeometry x="240" y="280" width="80" height="80" as="geometry" />
        </mxCell>
        <mxCell id="mUgfSfkDz3fqkiwKvha_-5" value="&lt;font style=&quot;font-size: 26px;&quot;&gt;&lt;b&gt;CM&lt;/b&gt;&lt;/font&gt;" style="text;html=1;resizable=0;autosize=1;align=center;verticalAlign=middle;points=[];fillColor=none;strokeColor=none;rounded=0;" vertex="1" parent="1">
          <mxGeometry x="250" y="300" width="60" height="40" as="geometry" />
        </mxCell>
        <mxCell id="mUgfSfkDz3fqkiwKvha_-6" value="" style="ellipse;whiteSpace=wrap;html=1;aspect=fixed;fillColor=#A9C4EB;" vertex="1" parent="1">
          <mxGeometry x="360" y="280" width="80" height="80" as="geometry" />
        </mxCell>
        <mxCell id="mUgfSfkDz3fqkiwKvha_-7" value="&lt;font style=&quot;font-size: 26px;&quot;&gt;&lt;b&gt;RN&lt;/b&gt;&lt;/font&gt;" style="text;html=1;resizable=0;autosize=1;align=center;verticalAlign=middle;points=[];fillColor=none;strokeColor=none;rounded=0;" vertex="1" parent="1">
          <mxGeometry x="370" y="300" width="60" height="40" as="geometry" />
        </mxCell>
        <mxCell id="mUgfSfkDz3fqkiwKvha_-10" value="" style="curved=1;endArrow=classic;html=1;rounded=0;strokeWidth=2;fontSize=26;entryX=0.5;entryY=0;entryDx=0;entryDy=0;exitX=0.5;exitY=0;exitDx=0;exitDy=0;" edge="1" parent="1" source="mUgfSfkDz3fqkiwKvha_-4" target="mUgfSfkDz3fqkiwKvha_-6">
          <mxGeometry width="50" height="50" relative="1" as="geometry">
            <mxPoint x="590" y="410" as="sourcePoint" />
            <mxPoint x="640" y="360" as="targetPoint" />
            <Array as="points">
              <mxPoint x="300" y="240" />
              <mxPoint x="380" y="240" />
            </Array>
          </mxGeometry>
        </mxCell>
        <mxCell id="mUgfSfkDz3fqkiwKvha_-13" value="" style="curved=1;endArrow=classic;html=1;rounded=0;strokeWidth=2;fontSize=26;entryX=0.5;entryY=1;entryDx=0;entryDy=0;" edge="1" parent="1" target="mUgfSfkDz3fqkiwKvha_-4">
          <mxGeometry width="50" height="50" relative="1" as="geometry">
            <mxPoint x="400" y="360" as="sourcePoint" />
            <mxPoint x="640" y="360" as="targetPoint" />
            <Array as="points">
              <mxPoint x="380" y="400" />
              <mxPoint x="300" y="400" />
            </Array>
          </mxGeometry>
        </mxCell>
      </root>
    </mxGraphModel>
  </diagram>
</mxfile>
